<?xml version="1.0" encoding="utf-8"?>
<!-- Generator: Adobe Illustrator 25.2.0, SVG Export Plug-In . SVG Version: 6.00 Build 0)  -->
<svg version="1.1" id="Layer_1" xmlns="http://www.w3.org/2000/svg" xmlns:xlink="http://www.w3.org/1999/xlink" x="0px" y="0px"
	 viewBox="0 0 1080 1080" style="enable-background:new 0 0 1080 1080;" xml:space="preserve">
<style type="text/css">
	.st0{fill-rule:evenodd;clip-rule:evenodd;fill:#CD2A20;}
	.st1{fill-rule:evenodd;clip-rule:evenodd;}
	.st2{fill:#CD2A20;}
</style>
<g>
	<path class="st0" d="M563.62,300.87v22.09c-12.41-10.23-19.23-16.5-18-17.18L177.15,529.69l369.55-242.46L563.62,300.87z"/>
	<path class="st1" d="M710.21,463.15l78,62.87l-2.59,3.27l-2.59,3.55c-0.27-0.27-29.86-21.55-68.18-49.64
		c13.91,61.5,33.55,155.46,69.41,281.05l-84.68,5.59l-43.36-162.55l-87.28,184.64l-5.32,0.41V627.47
		c42.55-90,69.55-153.55,88.23-191.19c-34.36-25.91-67.5-51.55-88.23-69.14v-22.36l95.73,77.18c4.09-7.36,7.64-13.23,10.91-17.45
		c-44.86-33.41-84.68-63.68-106.64-81.55v-22.09l117.41,94.78h0.14c4.36-0.82,8.18,2.18,11.59,9.41c0.14,0,0.14,0.14,0.14,0.14
		l209.46,169.09c-21-15.14-114.82-83.05-201.14-146.87C704.08,437.1,706.94,448.96,710.21,463.15z"/>
	<path class="st0" d="M563.62,350.37v14.73c-5.46-4.36-9.96-8.05-13.23-10.91c-0.27-0.14-0.41-0.27-0.55-0.41h-0.14
		c-1.64-1.5-2.86-2.59-3.82-3.55l-0.27-0.27c-0.95-0.95-1.5-1.77-1.5-2.05l-154.91,94.09l-47.05,28.64l-44.05,26.73l44.46-29.18
		h0.14l47.59-31.23l154.78-101.59L563.62,350.37z"/>
	<path class="st2" d="M545.35,330.05L391.52,430.96l-47.73,31.36l-48.14,31.5l4.64,7.23c13.09-6.68,26.46-14.18,40.23-22.09
		c15.27-8.73,30.96-18,46.77-27.68c54-33,109.78-69.82,159.14-99.82c3.82,3.95,9.68,9.27,17.18,15.68v-3.27
		c-5.73-4.23-10.36-7.5-13.23-9.68c-0.27-0.14-0.41-0.27-0.55-0.41h-0.14c-2.05-1.5-3.14-2.45-3.14-2.45l-0.68-1.09l-0.27-0.27
		l-1.36-2.18l-2.18-3.68l-31.36,19.09l34.09-22.5l18.82,15.14v-11.05L545.35,330.05z"/>
	<path class="st0" d="M563.62,627.47v164.87h-0.68L442.66,619.15L421.8,788.52l-40.23,2.59l60.68-314.05l114.82,164.19
		C559.26,636.61,561.44,631.97,563.62,627.47z"/>
	<polygon class="st0" points="397.89,447.1 438.27,454.88 373.25,770.57 330.92,792.87 	"/>
	<polygon class="st0" points="395.11,413.57 323.32,762.07 287.02,755.49 348.48,438.13 	"/>
</g>
</svg>
